<svg width="57" height="65" viewBox="0 0 57 65" fill="none" xmlns="http://www.w3.org/2000/svg">
<path fill-rule="evenodd" clip-rule="evenodd" d="M0 0.66626L5.1358 58.2683L28.183 64.6663L51.293 58.2589L56.4343 0.66626H0ZM46.9154 54.6348L28.2645 59.7657L28.2645 52.4341L28.2084 52.4474L13.7123 48.4336L12.7225 37.3485H19.8148L20.3296 42.9753L28.2099 45.0916L28.2645 45.0834V33.6803L12.3745 33.6803L11.7558 26.626V26.626L28.2645 19.5603L28.2646 19.0723H11.1276L10.5016 12.018H28.1929H28.2646L28.2645 5.46332H51.2852L46.9154 54.6348Z" fill="white"/>
<path fill-rule="evenodd" clip-rule="evenodd" d="M29.4032 19.0724L28.2645 19.5604V26.626H28.2645V33.6803H36.8922L36.108 42.9032L28.2645 45.0895V52.4396L42.7125 48.4259L44.6151 26.626H28.2646L45.2565 19.0724L45.8633 12.0181H28.2645V18.9839V19.0724H29.4032Z" fill="white"/>
</svg>
