<svg width="44" height="64" viewBox="0 0 44 64" fill="none" xmlns="http://www.w3.org/2000/svg">
<path fill-rule="evenodd" clip-rule="evenodd" d="M11.4167 0C5.52867 0 0.75 4.77867 0.75 10.6667C0.75 16.5547 5.52867 21.3333 11.4167 21.3333C5.52867 21.3333 0.75 26.112 0.75 32C0.75 37.888 5.52867 42.6667 11.4167 42.6667C5.52867 42.6667 0.75 47.4453 0.75 53.3333C0.75 59.2213 5.52867 64 11.4167 64C17.3047 64 22.0833 59.2213 22.0833 53.3333L22.0833 32C22.0833 37.888 26.862 42.6667 32.75 42.6667C38.638 42.6667 43.4167 37.888 43.4167 32C43.4167 26.112 38.638 21.3333 32.75 21.3333C38.638 21.3333 43.4167 16.5547 43.4167 10.6667C43.4167 4.77867 38.638 0 32.75 0H11.4167ZM32.75 21.3333H22.0833L22.0833 32C22.0833 26.112 26.862 21.3333 32.75 21.3333Z" fill="white"/>
</svg>
