<svg width="64" height="65" viewBox="0 0 64 65" fill="none" xmlns="http://www.w3.org/2000/svg">
<path fill-rule="evenodd" clip-rule="evenodd" d="M32.0003 1.83374C14.7435 1.83374 0.75 15.8246 0.75 33.084C0.75 46.8912 9.70415 58.6051 22.1208 62.7373C23.6826 63.0266 24.256 62.0594 24.256 61.234C24.256 60.4888 24.227 58.0271 24.2136 55.4158C15.5197 57.3062 13.6852 51.7287 13.6852 51.7287C12.2637 48.1166 10.2154 47.1561 10.2154 47.1561C7.3801 45.2166 10.4292 45.2564 10.4292 45.2564C13.5672 45.4769 15.2196 48.4768 15.2196 48.4768C18.0068 53.2543 22.5302 51.8731 24.3134 51.0746C24.5939 49.0548 25.4038 47.6762 26.2975 46.8958C19.3564 46.1056 12.0598 43.4261 12.0598 31.4518C12.0598 28.04 13.2805 25.2523 15.2796 23.0638C14.9551 22.2767 13.8855 19.0983 15.5823 14.7938C15.5823 14.7938 18.2065 13.9539 24.1784 17.9971C26.6711 17.3047 29.3445 16.9574 32.0003 16.9455C34.656 16.9574 37.3315 17.3047 39.8289 17.9971C45.7935 13.9539 48.414 14.7938 48.414 14.7938C50.115 19.0983 49.0449 22.2767 48.7204 23.0638C50.7241 25.2523 51.9366 28.04 51.9366 31.4518C51.9366 43.4545 44.626 46.0974 37.6673 46.871C38.7882 47.8408 39.7869 49.7426 39.7869 52.6581C39.7869 56.8394 39.7507 60.2047 39.7507 61.234C39.7507 62.0656 40.3132 63.04 41.8973 62.7331C54.3072 58.5963 63.25 46.8865 63.25 33.084C63.25 15.8246 49.2586 1.83374 32.0003 1.83374ZM12.4542 46.3504C12.3854 46.5056 12.1412 46.5522 11.9186 46.4456C11.692 46.3437 11.5647 46.132 11.6382 45.9762C11.7054 45.8163 11.9502 45.7718 12.1763 45.879C12.4035 45.9809 12.5329 46.1946 12.4542 46.3504ZM13.9914 47.722C13.8424 47.8602 13.551 47.796 13.3533 47.5776C13.1489 47.3597 13.1106 47.0684 13.2617 46.9282C13.4154 46.79 13.698 46.8547 13.9029 47.0725C14.1073 47.293 14.1472 47.5823 13.9914 47.722ZM15.046 49.4769C14.8545 49.6099 14.5414 49.4852 14.3479 49.2073C14.1564 48.9294 14.1564 48.5961 14.352 48.4626C14.5461 48.3291 14.8545 48.4492 15.0506 48.725C15.2416 49.0075 15.2416 49.3408 15.046 49.4769ZM16.8294 51.5093C16.6581 51.6982 16.2933 51.6475 16.0263 51.3898C15.7531 51.1378 15.677 50.7802 15.8488 50.5913C16.0221 50.4019 16.389 50.4552 16.6581 50.7108C16.9293 50.9623 17.0121 51.3225 16.8294 51.5093ZM19.1344 52.1954C19.0588 52.4402 18.7075 52.5515 18.3535 52.4475C18.0001 52.3403 17.7687 52.0537 17.8402 51.8063C17.9136 51.56 18.2666 51.444 18.6231 51.5553C18.9761 51.6619 19.2079 51.9465 19.1344 52.1954ZM21.7576 52.4865C21.7664 52.7442 21.4662 52.9579 21.0946 52.9626C20.721 52.9709 20.4188 52.7623 20.4147 52.5087C20.4147 52.2484 20.7081 52.0368 21.0817 52.0306C21.4533 52.0233 21.7576 52.2303 21.7576 52.4865ZM24.3345 52.3877C24.379 52.6392 24.1208 52.8974 23.7518 52.9663C23.3891 53.0325 23.0532 52.8772 23.0071 52.6278C22.9621 52.3701 23.225 52.1119 23.5872 52.0451C23.9567 51.981 24.2874 52.1321 24.3345 52.3877Z" fill="white"/>
</svg>
