<svg width="64" height="65" viewBox="0 0 64 65" fill="none" xmlns="http://www.w3.org/2000/svg">
<g clip-path="url(#clip0_113_273)">
<path d="M31.9316 63.6285L9.82022 57.4902L4.84312 1.66626H59.0887L54.1064 57.4809L31.9316 63.6285Z" stroke="white" stroke-width="2"/>
<path fill-rule="evenodd" clip-rule="evenodd" d="M46.4246 48.4297L46.5308 47.2361L48.191 28.6371L48.3633 26.74H22.6176L21.9719 19.5057H31.9538H48.9834L49.1479 17.9177L49.4698 14.3363L49.6387 12.4409H31.9538H14.2511L14.4202 14.3363L16.1566 33.8046H31.966H40.6409L39.8209 42.967L31.9647 45.0875L24.067 42.9715L23.5641 37.3371H19.7408H16.4722L17.462 48.4297L31.9335 52.4471L46.4246 48.4297Z" fill="white"/>
</g>
<defs>
<clipPath id="clip0_113_273">
<rect width="64" height="64" fill="white" transform="translate(0 0.66626)"/>
</clipPath>
</defs>
</svg>
