<svg width="64" height="65" viewBox="0 0 64 65" fill="none" xmlns="http://www.w3.org/2000/svg">
<path fill-rule="evenodd" clip-rule="evenodd" d="M0.75 9.41626C0.75 4.99798 4.33172 1.41626 8.75 1.41626H55.25C59.6683 1.41626 63.25 4.99798 63.25 9.41626V55.9163C63.25 60.3345 59.6683 63.9163 55.25 63.9163H8.75C4.33172 63.9163 0.75 60.3345 0.75 55.9163V9.41626ZM17.1835 53.6457C17.1835 53.6458 17.1836 53.6458 17.1836 53.6458L17.1836 53.6458C18.5681 56.5822 21.2955 59.0154 25.9937 59.0154C31.1962 59.0154 34.7621 56.2464 34.7621 50.1631V33.0465C34.7621 31.4246 33.4473 30.1098 31.8254 30.1098C30.2035 30.1098 28.8887 31.4246 28.8887 33.0465V50.08C28.8887 53.0166 27.6719 53.7715 25.742 53.7715C22.9352 53.7715 19.9798 51.9536 17.5785 53.4068L17.1836 53.6458L17.1836 53.6457C17.1836 53.6457 17.1835 53.6457 17.1835 53.6457ZM44.5055 52.4104C43.3176 51.3973 41.6567 50.8717 40.3056 51.654C38.9851 52.4186 38.4617 54.1187 39.471 55.2631C41.4409 57.4965 44.4821 59.0159 48.6505 59.0159C54.2303 59.0159 58.3836 56.1213 58.3836 50.8348C58.3836 45.9264 55.5726 43.745 50.5801 41.6052L49.1118 40.976C46.5948 39.8851 45.504 39.1717 45.504 37.4096C45.504 35.9834 46.5948 34.8926 48.315 34.8926C49.0314 34.8926 49.6407 35.0226 50.1822 35.312C51.5566 36.0464 53.1984 36.6981 54.5097 35.8561C55.7177 35.0804 56.1479 33.4508 55.1649 32.4045C53.4061 30.5325 51.1663 29.774 48.3149 29.774C43.0704 29.774 39.7142 33.1304 39.7142 37.5356C39.7142 42.3184 42.5252 44.5839 46.7628 46.3876L48.2308 47.0173C50.9159 48.1917 52.51 48.9049 52.51 50.9187C52.51 52.5969 50.9581 53.8137 48.5245 53.8137C46.8005 53.8137 45.5229 53.278 44.5055 52.4104Z" fill="white"/>
</svg>
