<svg width="64" height="65" viewBox="0 0 64 65" fill="none" xmlns="http://www.w3.org/2000/svg">
<g clip-path="url(#clip0_113_462)">
<path d="M36.08 0.66626C39.6 8.81126 23.46 13.8413 21.96 20.6263C20.585 26.8613 31.55 34.1063 31.56 34.1063C29.895 31.5263 28.67 29.4013 27 25.3863C24.175 18.5963 44.205 12.4513 36.08 0.66626ZM46.8 11.9463C46.8 11.9463 32.64 12.8563 31.92 21.9063C31.6 25.9363 35.645 28.0563 35.76 30.9863C35.855 33.3813 33.36 35.3863 33.36 35.3863C33.36 35.3863 37.9 34.5213 39.32 30.8663C40.895 26.8113 36.25 24.0713 36.72 20.8263C37.17 17.7213 46.8 11.9463 46.8 11.9463ZM24.56 32.8663C24.56 32.8663 11.6 32.6813 11.6 36.3463C11.6 40.1763 28.565 40.4613 40.68 38.1063C40.68 38.1063 43.9 35.8913 44.76 35.0663C36.82 36.6863 18.72 36.8663 18.72 35.4663C18.72 34.1763 24.56 32.8663 24.56 32.8663ZM49.48 32.8663C48.21 32.9663 46.84 33.4563 45.6 34.3463C48.52 33.7163 51 35.5263 51 37.5863C51 42.2263 44.28 46.5863 44.28 46.5863C44.28 46.5863 54.68 45.4063 54.68 37.7863C54.68 34.3263 52.275 32.6463 49.48 32.8663ZM21.44 39.9863C19.45 39.9863 16.48 41.5463 16.48 43.0263C16.48 46.0013 31.44 48.2913 42.52 43.9463L38.68 41.5863C31.17 43.9913 17.34 43.2063 21.44 39.9863ZM23.28 46.6663C20.555 46.6663 18.76 48.3113 18.76 49.5463C18.76 53.3663 35.035 53.7513 41.48 49.8663L37.4 47.2663C32.585 49.3013 20.5 49.6113 23.28 46.6663ZM14.2 50.1063C9.76 50.0163 6.88 52.0113 6.88 53.6663C6.88 62.4663 52.32 62.0613 52.32 53.0663C52.32 51.5713 50.595 50.8463 49.96 50.5063C53.675 59.1063 12.76 58.4213 12.76 53.3463C12.76 52.1913 15.77 51.0863 18.56 51.6263L16.2 50.2663C15.505 50.1613 14.835 50.1213 14.2 50.1063ZM57.12 56.0263C50.21 62.5763 32.7 64.9513 15.08 60.9063C32.695 68.1163 57.035 64.0713 57.12 56.0263Z" fill="white"/>
</g>
<defs>
<clipPath id="clip0_113_462">
<rect width="64" height="64" fill="white" transform="translate(0 0.66626)"/>
</clipPath>
</defs>
</svg>
