<svg width="29" height="65" viewBox="0 0 29 65" fill="none" xmlns="http://www.w3.org/2000/svg">
<path fill-rule="evenodd" clip-rule="evenodd" d="M13.0265 56.6812C14.1937 59.4189 14.082 64.0842 14.082 64.0842L15.7858 64.6662C15.7858 64.6662 15.4534 60.0948 15.9523 57.9337C16.0919 57.261 16.4291 56.6737 16.8303 56.1823C16.7455 56.2417 16.7004 56.2714 16.7004 56.2714C15.0399 55.4937 14.5488 51.8885 14.4689 48.5094C14.1377 52.6917 13.6642 55.744 13.2095 56.8115C13.2095 56.8115 13.1455 56.7678 13.0265 56.6812Z" fill="white"/>
<path fill-rule="evenodd" clip-rule="evenodd" d="M14.0836 0.934505L14.082 0.832678C14.082 0.832678 14.9966 3.15982 15.9523 4.48961C16.8248 6.35988 24.7628 11.2222 28.1288 26.0583C31.6198 46.4637 16.7004 56.2715 16.7004 56.2715C15.0399 55.4937 14.5488 51.8886 14.469 48.5095C14.1377 52.6917 13.6642 55.744 13.2095 56.8116C13.2095 56.8116 -0.795719 47.253 0.0355966 30.4221C0.824919 13.5909 10.7159 5.32093 12.6274 3.82471C13.8744 2.49492 13.916 1.99605 13.9992 0.66626C14.0285 0.729004 14.0566 0.819017 14.0836 0.934514V0.934505Z" fill="white"/>
</svg>
