<svg width="66" height="65" viewBox="0 0 66 65" fill="none" xmlns="http://www.w3.org/2000/svg">
<path d="M51.4517 51.4076C53.7576 50.4323 56.5069 50.0773 60.0544 50.1658C59.9546 49.502 58.6869 48.7136 57.7582 48.1361C57.4465 47.9422 57.1729 47.7721 56.9946 47.6384C55.5756 46.6186 54.0678 45.554 52.5603 44.6232C52.0746 44.3264 51.3754 44.0788 50.7025 43.8405C50.2697 43.6872 49.8477 43.5378 49.5005 43.3816C49.1458 43.237 48.6626 43.0925 48.141 42.9364C46.9019 42.5657 45.4457 42.13 44.9775 41.4749C43.7717 39.9074 42.9303 38.0119 42.09 36.119C42.0032 35.9235 41.9164 35.7279 41.8292 35.5328C41.3894 34.5274 40.9001 33.5021 40.408 32.4711C39.8584 31.3196 39.3054 30.1608 38.8139 29.0143C38.5998 28.5474 38.437 28.1059 38.2767 27.6713C38.0718 27.1156 37.871 26.5712 37.5724 25.9991C34.3351 19.7468 29.5464 14.5141 23.7373 10.8337C21.8303 9.63636 19.7022 8.5275 17.3518 7.7739C16.634 7.55866 15.8389 7.52402 15.0359 7.48903C14.3506 7.45917 13.6596 7.42906 13.0062 7.28624H12.0749C11.5372 7.13688 11.0599 6.70575 10.6159 6.3047C10.4008 6.11041 10.1935 5.92317 9.99095 5.77846C8.61615 4.84737 7.24163 4.22617 5.60088 3.56131C5.02449 3.29536 3.38374 2.67445 2.80733 3.16239C2.45236 3.25113 2.27516 3.3841 2.18642 3.73879C1.83173 4.27097 2.14247 5.06908 2.3639 5.55674C2.80343 6.49443 3.35921 7.18044 3.92872 7.8834C4.22108 8.24426 4.51705 8.60959 4.80278 9.01573C4.93925 9.20835 5.08153 9.40533 5.2262 9.60562C5.8807 10.5117 6.5841 11.4856 7.01993 12.4299C7.63494 13.7548 8.07331 15.1553 8.51008 16.5508C8.89201 17.771 9.27272 18.9873 9.76925 20.1457C10.1682 21.0771 10.7891 22.1412 11.3655 22.9838C11.5463 23.2304 11.7819 23.4525 12.0205 23.6775C12.4255 24.0593 12.8389 24.449 13.0062 24.9792C13.4375 25.6979 12.6458 27.7558 12.1647 29.0062C12.0521 29.2989 11.9565 29.5473 11.8977 29.724C10.7446 33.3599 10.9663 38.4151 12.2966 41.5634C12.3441 41.6743 12.3913 41.787 12.4389 41.9005C12.9234 43.0578 13.4435 44.2999 14.7355 44.6231C14.7756 44.583 14.7795 44.5701 14.7881 44.5639C14.7986 44.5565 14.816 44.5588 14.9129 44.5344C14.9778 44.0247 15.033 43.5189 15.0875 43.0201C15.2935 41.1326 15.4884 39.3469 16.1545 37.8387C16.4719 37.0599 16.9954 36.4312 17.5057 35.8184C17.78 35.4891 18.0504 35.1644 18.2829 34.8234C18.5643 34.9922 18.6671 35.3752 18.7728 35.7687C18.8336 35.9952 18.8953 36.2252 18.9926 36.4197C19.0344 36.5195 19.0765 36.62 19.1189 36.7212C19.6596 38.0125 20.2414 39.4018 20.8993 40.6765C22.3625 43.5146 24.0035 46.2636 25.8657 48.747C26.4864 49.6338 27.3735 50.6095 28.1716 51.4076C28.293 51.5138 28.4195 51.6044 28.5442 51.6937C28.7838 51.8653 29.0163 52.0318 29.1915 52.2944H29.2802V52.4277C28.4383 52.1189 27.7919 51.4549 27.1608 50.8068C26.7947 50.4307 26.4338 50.06 26.0429 49.7671C24.0475 48.2593 21.6531 45.9976 20.2783 43.825C19.8453 42.8924 19.3874 41.9847 18.9231 41.0644C18.7693 40.7596 18.6149 40.4535 18.4604 40.1446C18.4604 40.1446 18.4606 40.1001 18.4604 40.0559C18.2909 40.2819 18.2655 40.5078 18.2348 40.7797C18.2174 40.9345 18.1983 41.1042 18.1499 41.2974C17.9856 41.9296 17.9041 42.5871 17.8254 43.2225C17.6281 44.8154 17.448 46.2698 16.0215 46.8403C13.7601 47.7717 12.0749 45.3322 11.3655 44.2239C9.10411 40.5435 8.4832 34.3355 10.0794 29.3248C10.2029 28.9391 10.2888 28.5266 10.3745 28.1153C10.5351 27.3443 10.6948 26.5774 11.0995 25.9991C11.0106 25.4662 10.7043 25.1901 10.405 24.9203C10.2561 24.7861 10.1088 24.6533 9.99097 24.4913C9.37006 23.6489 8.83817 22.6733 8.35022 21.7423C7.64123 20.3581 7.08667 18.7683 6.54922 17.2276C6.38065 16.7443 6.21377 16.2659 6.04433 15.8002C5.89297 15.411 5.79437 15.0218 5.69709 14.6377C5.59485 14.234 5.49405 13.8361 5.33495 13.45C4.91577 12.5418 4.22165 11.6337 3.57722 10.7906C3.40351 10.5634 3.23342 10.3408 3.07329 10.1243C2.90055 9.87639 2.67182 9.58906 2.41685 9.26877C1.16656 7.69812 -0.714766 5.33476 0.279744 2.94068C2.1422 -1.62661 8.66098 1.83182 11.188 3.42834C11.4407 3.59081 11.7081 3.82668 11.9842 4.07023C12.3865 4.42509 12.8073 4.79624 13.228 4.98035C13.7824 5.00261 14.3368 5.03586 14.8913 5.06911C15.4455 5.10235 15.9997 5.13558 16.5537 5.15783C16.7352 5.20031 16.9158 5.24211 17.0952 5.28366C18.9754 5.71907 20.7317 6.12579 22.2296 6.97578C29.8566 11.4546 34.8231 16.0219 39.3904 23.5602C40.0104 24.5747 40.4335 25.643 40.8643 26.731C41.1114 27.3548 41.361 27.9851 41.6517 28.6154C42.7603 31.1872 44.0024 33.8918 45.2879 36.3309C45.4496 36.6543 45.6007 36.988 45.7522 37.3225C46.1409 38.1807 46.5316 39.0434 47.1062 39.7454C47.3126 40.0406 47.7747 40.198 48.2175 40.349C48.4399 40.4248 48.6575 40.4989 48.8354 40.588C49.4089 40.8834 50.0301 41.1516 50.6563 41.422C51.6278 41.8414 52.6112 42.2659 53.4472 42.8052C56.019 44.4014 58.5024 46.3078 60.7638 48.2593C61.2209 48.6683 61.5998 49.1686 61.9781 49.6683C62.2972 50.0896 62.6159 50.5104 62.9809 50.8757V51.2746C62.2715 51.4963 61.5619 51.718 60.8525 51.8955C60.0806 52.0939 59.3526 52.1717 58.6303 52.2489C57.9003 52.3269 57.1761 52.4042 56.4182 52.6049C56.3226 52.6322 56.2248 52.6605 56.125 52.6893C55.2521 52.9411 54.2339 53.2349 53.3584 53.3146C53.4026 53.3588 53.4472 53.403 53.4472 53.403C53.8746 54.6196 55.6919 55.6656 57.1813 56.5228C57.7005 56.8216 58.1799 57.0975 58.5466 57.3497C60.2761 58.5912 61.8723 60.099 63.1584 61.8282C63.3795 62.0493 63.6006 62.2593 63.8217 62.4694C64.0441 62.6806 64.2665 62.8919 64.4887 63.1143C64.6389 63.3289 64.7371 63.5748 64.8338 63.8166C64.9368 64.0743 65.0379 64.3274 65.1981 64.5333V64.6663C64.8101 64.5277 64.5434 64.2506 64.2789 63.9757C64.1201 63.8107 63.9621 63.6464 63.779 63.5135C63.3614 63.2287 62.9438 62.9195 62.5263 62.6103C61.9684 62.1972 61.4106 61.7841 60.8525 61.4293C59.9945 60.8873 59.0674 60.4604 58.1358 60.0313C57.2378 59.6178 56.3356 59.2023 55.4868 58.68C54.5115 58.059 53.5801 57.3497 52.649 56.6403C51.8064 56.0194 50.8756 54.8218 50.3431 53.9352C50.2089 53.7244 50.1245 53.497 50.0432 53.2781C49.9364 52.9906 49.835 52.7177 49.6335 52.5162C49.6998 51.8862 50.3118 51.7272 50.8944 51.5758C51.0909 51.5248 51.284 51.4746 51.4517 51.4076Z" fill="white"/>
<path d="M13.006 11.8535C13.5382 11.7205 14.0701 11.6315 14.824 11.6315C14.9645 11.7722 15.1399 11.8918 15.317 12.0127C15.5869 12.1969 15.8607 12.3837 16.0213 12.6516C16.1198 12.7896 16.1833 12.9275 16.2467 13.0654C16.3261 13.2379 16.4055 13.4105 16.5535 13.583C16.5535 14.6471 16.2433 15.3564 15.6221 15.8002C15.6221 15.8002 15.5779 15.8444 15.5336 15.8889C15.3564 15.5346 15.1904 15.1803 15.0243 14.826C14.8578 14.4707 14.6913 14.1154 14.5135 13.7602C14.3409 13.5185 14.1414 13.297 13.9411 13.0746C13.6272 12.726 13.3115 12.3754 13.0948 11.9423H13.006V11.8535Z" fill="white"/>
</svg>
