<svg width="64" height="64" viewBox="0 0 64 64" fill="none" xmlns="http://www.w3.org/2000/svg">
<path fill-rule="evenodd" clip-rule="evenodd" d="M32.0567 63.134C31.197 63.134 30.3946 62.9048 29.6496 62.5036L22.0271 57.976C20.8808 57.3455 21.454 57.1163 21.7978 57.0017C23.3452 56.4858 23.6318 56.3712 25.2365 55.4542C25.4085 55.3396 25.6377 55.3969 25.8097 55.5115L31.6555 59.0076C31.8847 59.1222 32.1713 59.1222 32.3432 59.0076L55.2107 45.7685C55.4399 45.6539 55.5546 45.4246 55.5546 45.1381V18.7173C55.5546 18.4307 55.4399 18.2015 55.2107 18.0869L32.3432 4.90511C32.114 4.79049 31.8274 4.79049 31.6555 4.90511L8.78802 18.0869C8.55877 18.2015 8.44415 18.488 8.44415 18.7173V45.1381C8.44415 45.3673 8.55877 45.6539 8.78802 45.7685L15.035 49.3792C18.4164 51.0985 20.537 49.0926 20.537 47.0867V21.0098C20.537 20.6659 20.8235 20.322 21.2247 20.322H24.1476C24.4915 20.322 24.8354 20.6086 24.8354 21.0098V47.0867C24.8354 51.6143 22.3709 54.2507 18.0726 54.2507C16.7544 54.2507 15.7228 54.2507 12.7999 52.8179L6.7821 49.3792C5.29199 48.5195 4.375 46.9148 4.375 45.1954V18.7746C4.375 17.0552 5.29199 15.4505 6.7821 14.5908L29.6496 1.35177C31.0824 0.549408 33.031 0.549408 34.4638 1.35177L57.3312 14.5908C58.8213 15.4505 59.7383 17.0552 59.7383 18.7746V45.1954C59.7383 46.9148 58.8213 48.5195 57.3312 49.3792L34.4638 62.6182C33.7187 62.9621 32.859 63.134 32.0567 63.134ZM39.106 44.9662C29.0764 44.9662 27.0132 40.3812 27.0132 36.484C27.0132 36.1401 27.2998 35.7962 27.701 35.7962H30.6812C31.025 35.7962 31.3116 36.0255 31.3116 36.3694C31.7701 39.4069 33.0883 40.897 39.1633 40.897C43.9775 40.897 46.0408 39.8081 46.0408 37.229C46.0408 35.7389 45.4677 34.65 37.9598 33.9049C31.7128 33.2745 27.8156 31.899 27.8156 26.9129C27.8156 22.2706 31.7128 19.5197 38.2463 19.5197C45.5823 19.5197 49.1929 22.0414 49.6514 27.5433C49.6514 27.7153 49.5941 27.8872 49.4795 28.0591C49.3649 28.1738 49.1929 28.2884 49.021 28.2884H46.0408C45.7542 28.2884 45.4677 28.0591 45.4103 27.7726C44.7226 24.6204 42.9459 23.5888 38.2463 23.5888C32.9737 23.5888 32.3432 25.4228 32.3432 26.7983C32.3432 28.4603 33.0883 28.9761 40.195 29.8931C47.2443 30.8101 50.5684 32.1283 50.5684 37.0571C50.5111 42.1006 46.3846 44.9662 39.106 44.9662Z" fill="white"/>
</svg>
