<svg width="64" height="65" viewBox="0 0 64 65" fill="none" xmlns="http://www.w3.org/2000/svg">
<path d="M27.3333 61.9995C26.5773 61.9995 25.8573 61.6796 25.3506 61.1169L2.55598 35.7889C1.78264 34.9289 1.35864 33.8196 1.35864 32.6649C1.35864 31.5102 1.78398 30.4022 2.55731 29.5422L25.3506 4.21558C26.3626 3.09025 28.304 3.09025 29.316 4.21558L52.1119 29.5436C53.7119 31.3222 53.7119 34.0089 52.1119 35.7876L29.316 61.1169C28.8093 61.6796 28.0893 61.9995 27.3333 61.9995Z" fill="url(#paint0_linear_113_479)"/>
<path opacity="0.05" d="M53.3066 32.6663C53.3066 33.7863 52.9066 34.9063 52.1066 35.7863L31.5466 58.6529L31.0932 59.1462L23.0266 50.1863C21.6532 48.6529 21.6532 46.3596 23.0266 44.8263L32.8532 33.9063C33.4932 33.1996 33.4932 32.1329 32.8532 31.4263L23.0266 20.5063C21.6532 18.9729 21.6532 16.6796 23.0266 15.1463L31.0932 6.18628L31.5466 6.67961L52.1066 29.5463C52.9066 30.4263 53.3066 31.5463 53.3066 32.6663Z" fill="#A7A7A7"/>
<path opacity="0.05" d="M53.3066 32.6662C53.3066 33.7862 52.9066 34.9062 52.1066 35.7862L31.5466 58.6529L23.5199 49.7329C22.3732 48.4662 22.3732 46.5462 23.5199 45.2795L33.3466 34.3595C34.2132 33.3862 34.2132 31.9462 33.3466 30.9729L23.5199 20.0529C22.3732 18.7862 22.3732 16.8662 23.5199 15.5996L31.5466 6.67957L52.1066 29.5462C52.9066 30.4262 53.3066 31.5462 53.3066 32.6662Z" fill="#A7A7A7"/>
<path d="M36.6426 61.9997C35.8866 61.9997 35.1666 61.6797 34.6599 61.117L24.0146 49.289C23.1012 48.2744 23.1026 46.7357 24.0146 45.721L33.8426 34.8024C34.9386 33.585 34.9386 31.749 33.8426 30.5317L24.0146 19.613C23.1026 18.5984 23.1012 17.0597 24.0146 16.045L34.6599 4.21705C35.6719 3.09171 37.6132 3.09171 38.6252 4.21705L61.4212 29.545C63.0212 31.3237 63.0212 34.009 61.4226 35.789L38.6239 61.117C38.1186 61.6797 37.3986 61.9997 36.6426 61.9997Z" fill="url(#paint1_linear_113_479)"/>
<path d="M50.6547 46.4302C49.8987 46.4302 49.1787 46.1102 48.6733 45.5476L39.8893 35.7889C39.1147 34.9276 38.6893 33.8169 38.6907 32.6609C38.6907 31.5076 39.1173 30.4009 39.8893 29.5422L48.672 19.7849C49.6827 18.6596 51.6253 18.6596 52.636 19.7849L61.42 29.5436C63.02 31.3249 63.02 34.0076 61.4213 35.7876L52.636 45.5476C52.132 46.1102 51.4107 46.4302 50.6547 46.4302Z" fill="url(#paint2_linear_113_479)"/>
<defs>
<linearGradient id="paint0_linear_113_479" x1="22.3173" y1="4.21158" x2="32.3573" y2="61.1542" gradientUnits="userSpaceOnUse">
<stop offset="0.003" stop-color="white"/>
<stop offset="0.998" stop-color="#D3D3D3"/>
</linearGradient>
<linearGradient id="paint1_linear_113_479" x1="36.5132" y1="3.35038" x2="46.5546" y2="60.293" gradientUnits="userSpaceOnUse">
<stop stop-color="#C3C3C3"/>
<stop offset="0.998" stop-color="#B2B2B2"/>
</linearGradient>
<linearGradient id="paint2_linear_113_479" x1="48.3013" y1="19.3116" x2="53.016" y2="46.0556" gradientUnits="userSpaceOnUse">
<stop offset="0.006" stop-color="#999999"/>
<stop offset="0.998" stop-color="#D5D5D5"/>
</linearGradient>
</defs>
</svg>
