<svg width="54" height="55" viewBox="0 0 54 55" fill="none" xmlns="http://www.w3.org/2000/svg">
<path fill-rule="evenodd" clip-rule="evenodd" d="M14.2556 7.21098C14.2556 7.21098 13.4216 1.41943 26.7767 1.41943C40.7333 1.41943 39.6551 8.40205 39.6551 8.40205V19.9405C39.6551 26.9188 32.5533 26.804 32.5533 26.804H19.9132C12.3333 26.804 12.5732 34.263 12.5732 34.263V40.5161H8.12164C8.12164 40.5161 0.662597 40.994 0.662598 27.5186C0.662598 14.0433 9.20848 15.0125 9.20848 15.0125H27.0149V13.211H14.2705L14.2556 7.21098ZM22.0422 7.74696C22.0422 6.47899 21.0174 5.45416 19.7494 5.45416C18.4814 5.45416 17.4566 6.47899 17.4566 7.74696C17.4566 9.01494 18.4814 10.0398 19.7494 10.0398C21.0174 10.0398 22.0422 9.01494 22.0422 7.74696Z" fill="white"/>
<path fill-rule="evenodd" clip-rule="evenodd" d="M39.677 47.9614C39.677 47.9614 40.511 53.7529 27.156 53.7529C13.1994 53.7529 14.2776 46.7703 14.2776 46.7703V35.2319C14.2776 28.2536 21.3793 28.3684 21.3793 28.3684H34.0195C41.5994 28.3684 41.3594 20.9093 41.3594 20.9093V14.6563H45.811C45.811 14.6563 53.2701 14.1784 53.2701 27.6537C53.2701 41.1291 44.7242 40.1599 44.7242 40.1599H26.9178V41.9614H39.6622L39.677 47.9614ZM31.8905 47.4254C31.8905 48.6934 32.9153 49.7182 34.1833 49.7182C35.4512 49.7182 36.4761 48.6934 36.4761 47.4254C36.4761 46.1574 35.4512 45.1326 34.1833 45.1326C32.9153 45.1326 31.8905 46.1574 31.8905 47.4254Z" fill="white"/>
</svg>
