<svg width="64" height="64" viewBox="0 0 64 64" fill="none" xmlns="http://www.w3.org/2000/svg">
<path d="M52.6208 21.6181C51.9569 21.3931 51.269 21.1802 50.5606 20.9789C50.677 20.5111 50.7839 20.0493 50.8789 19.5953C52.4385 12.1415 51.4188 6.13669 47.9368 4.15964C44.5981 2.26392 39.1378 4.24051 33.6232 8.96587C33.0929 9.42025 32.5612 9.90133 32.0296 10.4055C31.6754 10.0719 31.3218 9.74957 30.9691 9.44123C25.1897 4.38857 19.3967 2.25932 15.9181 4.24208C12.5826 6.14331 11.5948 11.7884 12.9986 18.8524C13.1342 19.5348 13.2927 20.2315 13.4718 20.94C12.652 21.1691 11.8605 21.4134 11.1031 21.6733C4.32733 23.9993 0 27.6447 0 31.426C0 35.3313 4.64539 39.2484 11.7029 41.6235C12.2599 41.8109 12.8378 41.9881 13.4333 42.1564C13.24 42.9226 13.0719 43.6734 12.9307 44.4058C11.5922 51.3472 12.6375 56.859 15.9642 58.7482C19.4003 60.6992 25.1671 58.6938 30.7825 53.8607C31.2264 53.4787 31.6718 53.0736 32.118 52.6489C32.6964 53.1973 33.2738 53.7163 33.8482 54.2031C39.2874 58.8117 44.6595 60.6726 47.9831 58.7781C51.4158 56.8215 52.5314 50.9006 51.083 43.6968C50.9724 43.1466 50.8437 42.5845 50.6991 42.0125C51.1041 41.8946 51.5017 41.7729 51.8894 41.6464C59.2263 39.2528 64 35.3834 64 31.426C64 27.631 59.5331 23.9611 52.6208 21.6181ZM51.0295 39.0911C50.6796 39.2052 50.3205 39.3154 49.9546 39.4223C49.1446 36.8976 48.0514 34.2129 46.7137 31.4391C47.9903 28.7314 49.0412 26.081 49.8285 23.5726C50.4832 23.7592 51.1186 23.9559 51.7309 24.1635C57.6533 26.171 61.2659 29.139 61.2659 31.426C61.2659 33.862 57.3644 37.0243 51.0295 39.0911ZM48.4009 44.2196C49.0414 47.405 49.1329 50.285 48.7086 52.5364C48.3275 54.5594 47.5609 55.9082 46.6131 56.4484C44.5962 57.5979 40.2829 56.1037 35.6313 52.1624C35.098 51.7106 34.5609 51.2282 34.0221 50.7176C35.8254 48.7757 37.6277 46.5181 39.3867 44.0108C42.4807 43.7405 45.4037 43.2986 48.0545 42.6952C48.1851 43.2138 48.301 43.7223 48.4009 44.2196ZM21.819 56.2498C19.8485 56.935 18.279 56.9546 17.3303 56.416C15.3115 55.2696 14.4723 50.8441 15.6171 44.9078C15.7482 44.228 15.9043 43.5296 16.0841 42.8158C18.7059 43.3866 21.6075 43.7974 24.7088 44.0449C26.4797 46.4984 28.3341 48.7535 30.2028 50.728C29.7945 51.1161 29.3878 51.4856 28.9834 51.8338C26.5003 53.9709 24.012 55.4872 21.819 56.2498ZM12.5872 39.0762C9.46645 38.026 6.88926 36.661 5.12272 35.1716C3.53537 33.8331 2.73395 32.5042 2.73395 31.426C2.73395 29.1314 6.20836 26.2046 12.0031 24.2154C12.7062 23.974 13.4422 23.7465 14.2061 23.5328C15.0069 26.0978 16.0575 28.7796 17.3253 31.4915C16.0411 34.2436 14.9756 36.9681 14.1669 39.5632C13.6223 39.4091 13.0948 39.2469 12.5872 39.0762ZM15.6818 18.3355C14.479 12.2832 15.2778 7.71756 17.2879 6.5719C19.429 5.35141 24.1636 7.09156 29.1537 11.4543C29.4727 11.7331 29.7929 12.025 30.1141 12.3269C28.2546 14.2929 26.4172 16.531 24.662 18.97C21.652 19.2447 18.7708 19.686 16.1217 20.2769C15.9552 19.6172 15.8076 18.9691 15.6818 18.3355ZM43.2885 25.0474C42.6552 23.9704 42.0051 22.9188 41.3423 21.896C43.3843 22.1501 45.3407 22.4875 47.178 22.9004C46.6264 24.641 45.9389 26.4609 45.1296 28.3266C44.5491 27.2414 43.9351 26.1472 43.2885 25.0474ZM32.0305 14.2508C33.2916 15.596 34.5545 17.0979 35.7967 18.7275C34.545 18.6693 33.2777 18.639 32 18.639C30.7344 18.639 29.4765 18.6686 28.2325 18.7258C29.4759 17.1114 30.7497 15.6115 32.0305 14.2508ZM20.7005 25.066C20.0679 26.1461 19.4652 27.2343 18.8938 28.3246C18.0977 26.4654 17.4165 24.6372 16.8601 22.8719C18.6862 22.4696 20.6334 22.1406 22.6624 21.8913C21.9903 22.9235 21.3348 23.9828 20.7005 25.0658V25.066ZM22.7208 41.1527C20.6245 40.9224 18.648 40.6104 16.8224 40.2192C17.3877 38.4224 18.0839 36.5551 18.8969 34.6559C19.4698 35.7454 20.0748 36.8341 20.7113 37.9165H20.7114C21.3597 39.0192 22.0314 40.0994 22.7208 41.1527ZM32.1062 48.7909C30.8103 47.4143 29.5178 45.8915 28.2555 44.2536C29.4809 44.3009 30.7303 44.3251 32 44.3251C33.3045 44.3251 34.5941 44.2962 35.8633 44.2406C34.6171 45.908 33.3587 47.4332 32.1062 48.7909ZM45.1557 34.5591C46.0111 36.4789 46.7323 38.3363 47.3048 40.1025C45.4492 40.5193 43.4457 40.855 41.3348 41.1045C41.9991 40.0678 42.655 38.9982 43.2994 37.898C43.9514 36.7848 44.5704 35.67 45.1557 34.5591ZM40.9311 36.5531C39.9307 38.2611 38.9036 39.8915 37.8609 41.4306C35.9618 41.5643 33.9997 41.6331 32 41.6331C30.0084 41.6331 28.071 41.5722 26.2055 41.453C25.1208 39.8938 24.0713 38.2585 23.0773 36.5678H23.0775C22.0861 34.8817 21.1736 33.1814 20.3468 31.4906C21.1734 29.7959 22.0835 28.0936 23.0692 26.4106L23.069 26.4109C24.0573 24.7234 25.0975 23.096 26.1722 21.5466C28.0756 21.4049 30.0274 21.331 31.9999 21.331H32C33.9814 21.331 35.9357 21.4055 37.8385 21.5484C38.8968 23.0865 39.9299 24.7085 40.9221 26.3963C41.9257 28.103 42.8475 29.794 43.6812 31.4523C42.85 33.1392 41.9302 34.8472 40.9311 36.5531ZM46.5712 6.49181C48.7143 7.7087 49.5478 12.6164 48.2012 19.052C48.1153 19.4626 48.0186 19.8809 47.9136 20.3048C45.2584 19.7015 42.3751 19.2527 39.3563 18.9738C37.5978 16.5081 35.7754 14.2664 33.9462 12.3257C34.438 11.8599 34.9291 11.4157 35.4181 10.9965C40.1431 6.94788 44.5591 5.34939 46.5712 6.49181ZM32 25.7989C35.1562 25.7989 37.715 28.3182 37.715 31.426C37.715 34.5337 35.1562 37.053 32 37.053C28.8438 37.053 26.285 34.5337 26.285 31.426C26.285 28.3182 28.8438 25.7989 32 25.7989Z" fill="white"/>
</svg>
