<svg width="70" height="70" viewBox="0 0 70 70" fill="none" xmlns="http://www.w3.org/2000/svg">
<g clip-path="url(#clip0_113_463)">
<path d="M48.9767 34.7754C49.3063 34.9008 49.6359 35.0058 49.9509 35.1487C51.2634 35.7408 52.0363 36.7617 52.1325 38.1938C52.2521 40.0429 52.2609 41.9008 52.1384 43.75C51.9954 45.885 50.0238 47.5183 47.8129 47.4571C45.6692 47.3958 43.82 45.6488 43.7384 43.5458C43.6888 42.2596 43.7296 40.9675 43.7209 39.6783C43.7179 38.9813 43.7121 38.9725 43.0063 38.9696C39.0309 38.9667 35.0555 38.9929 31.08 38.9608C28.49 38.9404 26.9355 40.3667 26.7896 43.2192C26.7342 44.3275 26.498 45.3396 25.7484 46.1883C24.5905 47.5038 23.1292 47.9413 21.455 47.5475C19.8392 47.1654 18.9263 46.025 18.4363 44.4908C18.095 43.4204 18.273 42.3413 18.4713 41.3C19.4659 36.0588 22.4555 32.5325 27.5859 30.9312C28.6271 30.6046 29.718 30.4471 30.8088 30.4471C33.5505 30.45 36.295 30.45 39.0367 30.4442C39.41 30.4442 39.7863 30.4092 40.1596 30.3829C42.2071 30.2342 43.5604 28.8925 43.7179 26.4396C43.7296 26.2529 43.7179 26.0633 43.7209 25.8767C43.7529 23.5783 45.4854 21.805 47.7838 21.7204C50.0792 21.6358 51.9779 23.2575 52.1384 25.5646C52.36 28.7233 51.3654 31.5321 49.4754 34.0433C49.3004 34.2738 49.0554 34.4633 48.9767 34.7754ZM24.0596 30.4383C23.3071 30.415 22.3942 30.4908 21.4871 30.3363C19.9238 30.0738 18.9321 29.1987 18.5121 27.6646C18.0542 25.9933 18.2292 24.465 19.5359 23.2167C20.8659 21.9508 22.4409 21.5833 24.1646 22.2979C25.6813 22.9279 26.67 24.43 26.7605 26.0692C26.8334 27.3642 26.7692 28.665 26.7809 29.96C26.7838 30.2983 26.6555 30.4471 26.3113 30.4413C25.6113 30.4325 24.9142 30.4383 24.0596 30.4383ZM63.2392 0H6.76088C3.21421 0 0.338379 2.87583 0.338379 6.4225V62.7637C0.338379 66.7596 3.57879 70 7.57463 70H62.4284C66.4242 70 69.6646 66.7596 69.6646 62.7637V6.4225C69.6617 2.87583 66.7859 0 63.2392 0ZM58.6979 36.3796C60.2117 38.7246 60.8359 41.3088 60.6725 44.1292C60.3575 49.63 56.5513 54.2617 51.1934 55.5508C43.6538 57.3679 37.8759 52.8588 35.9305 47.4017C35.6125 46.515 35.4638 45.5875 35.2771 44.5288C35.0788 45.7363 34.9417 46.83 34.5071 47.8362C32.4742 52.5525 29.0121 55.4283 23.8175 56C17.6809 56.6767 12.0109 52.8879 10.3075 47.005C9.57838 44.4879 9.79713 41.9096 10.1092 39.3488C10.3425 37.4442 11.0455 35.6504 11.9525 33.9587C12.1188 33.6496 12.1188 33.4221 11.9234 33.1275C10.2871 30.6629 9.65129 27.9446 9.88171 25.0075C10.0042 23.4354 10.3834 21.9333 11.098 20.5275C13.1834 16.4092 17.7625 12.9121 23.8963 13.4925C29.2892 14.0029 34.2855 18.655 35.0671 23.8875C35.105 24.15 35.1809 24.4067 35.2655 24.7946C35.3938 24.0917 35.4871 23.5142 35.6096 22.9396C36.6129 18.1854 41.268 13.2125 47.8625 13.1483C54.5475 13.0871 59.5 18.3283 60.4334 23.1992C60.9292 25.7892 60.6929 28.3792 60.1329 30.9662C59.8063 32.4742 59.2288 33.9063 58.6046 35.3179C58.4325 35.7146 58.4588 36.0062 58.6979 36.3796Z" fill="black"/>
</g>
<defs>
<clipPath id="clip0_113_463">
<rect width="70" height="70" fill="white"/>
</clipPath>
</defs>
</svg>
